<?xml version="1.0" encoding="iso-8859-1"?>
<!-- Generator: Adobe Illustrator 19.0.0, SVG Export Plug-In . SVG Version: 6.00 Build 0)  -->
<svg version="1.1" id="Capa_1" xmlns="http://www.w3.org/2000/svg" xmlns:xlink="http://www.w3.org/1999/xlink" x="0px" y="0px"
	 viewBox="0 0 512 512" style="enable-background:new 0 0 512 512;" xml:space="preserve">
<path style="fill:#D1E7F8;" d="M376.885,62.685l27.281-47.661c-24.697,0-24.697,12-49.393,12c-24.697,0-24.697-12-49.393-12
	c-24.693,0-24.693,12-49.386,12c-24.694,0-24.694-12-49.388-12c-24.693,0-24.693,12-49.386,12c-24.692,0-24.692-12-49.385-12
	l27.281,47.661C58.992,105.154,7.5,186.472,7.5,279.831s51.492,174.677,127.615,217.146h241.77
	C453.008,454.508,504.5,373.189,504.5,279.831S453.008,105.154,376.885,62.685z"/>
<path style="fill:#9BC9FF;" d="M452.566,138.477c-27.764,0-27.764,12-55.527,12c-27.764,0-27.764-12-55.527-12
	c-27.76,0-27.76,12-55.52,12c-27.761,0-27.761-12-55.521-12c-27.759,0-27.759,12-55.519,12c-27.759,0-27.759-12-55.518-12
	C86.449,177.389,67.5,227.29,67.5,279.83c0,76.633,40.306,147.651,105.686,187.146h225.629
	C464.194,427.482,504.5,356.463,504.5,279.83C504.5,227.29,485.551,177.389,452.566,138.477z"/>
<path style="fill:#B3D8F4;" d="M422.566,138.477c-27.764,0-27.764,12-55.527,12c-27.764,0-27.764-12-55.527-12
	c-27.76,0-27.76,12-55.52,12c-27.761,0-27.761-12-55.521-12c-27.759,0-27.759,12-55.519,12c-27.759,0-27.759-12-55.518-12
	C56.449,177.389,37.5,227.29,37.5,279.83c0,76.633,40.306,147.651,105.686,187.146h225.629
	C434.194,427.482,474.5,356.463,474.5,279.83C474.5,227.29,455.551,177.389,422.566,138.477z"/>
<g>
	<path style="fill:#57A4FF;" d="M372.172,427.308c-10.954,0-19.834,8.88-19.834,19.834c0,9.938,7.309,18.169,16.845,19.611
		c7.843-4.759,15.324-9.972,22.417-15.595c0.267-1.297,0.407-2.64,0.407-4.015C392.007,436.188,383.127,427.308,372.172,427.308z"/>
	<path style="fill:#57A4FF;" d="M67.5,279.83c0-50.253,17.335-98.089,47.706-136.208c-6.336-2.69-13.213-5.146-25.772-5.146
		C56.449,177.389,37.5,227.29,37.5,279.83c0,76.633,40.306,147.651,105.686,187.146h30C107.806,427.482,67.5,356.463,67.5,279.83z"
		/>
	<path style="fill:#57A4FF;" d="M285.992,150.477c21.593,0,26.39-7.261,40.521-10.487c-4.036-0.921-8.833-1.513-15.001-1.513
		c-21.593,0-26.39,7.26-40.52,10.486C275.028,149.885,279.825,150.477,285.992,150.477z"/>
	<path style="fill:#57A4FF;" d="M397.039,150.477c15.205,0,22.083-3.599,29.755-6.855c-1.383-1.735-2.791-3.451-4.227-5.145
		c-21.597,0-26.394,7.261-40.527,10.487C386.074,149.885,390.872,150.477,397.039,150.477z"/>
	<path style="fill:#57A4FF;" d="M174.952,150.477c21.592,0,26.389-7.26,40.519-10.486c-4.036-0.921-8.833-1.514-15-1.514
		c-21.592,0-26.389,7.26-40.519,10.486C163.988,149.885,168.785,150.477,174.952,150.477z"/>
	<path style="fill:#57A4FF;" d="M342.007,290.783c-52.559-74.299-137.774-74.299-190.332,0l0,0l0,0
		C204.234,365.082,289.449,365.082,342.007,290.783L342.007,290.783L342.007,290.783z"/>
	<path style="fill:#57A4FF;" d="M397.667,243.415c-20.367,8.812-39.548,24.593-55.659,47.368l0,0l0,0
		c16.111,22.775,35.292,38.556,55.659,47.368V243.415z"/>
	<path style="fill:#57A4FF;" d="M239.382,346.205c2.833,15.433,16.344,27.13,32.596,27.13h33.483v-45.742l-0.077,0.014
		C284.655,341.761,261.894,347.961,239.382,346.205z"/>
	<path style="fill:#57A4FF;" d="M305.384,253.959l0.076,0.014v-45.742h-33.483c-16.252,0-29.762,11.697-32.596,27.13
		C261.894,233.606,284.655,239.805,305.384,253.959z"/>
</g>
<g>
	<circle style="fill:#FFFFFF;" cx="196.5" cy="447.14" r="19.834"/>
	<circle style="fill:#FFFFFF;" cx="156.83" cy="447.14" r="19.834"/>
	<circle style="fill:#FFFFFF;" cx="236.17" cy="447.14" r="19.834"/>
	<circle style="fill:#FFFFFF;" cx="275.83" cy="447.14" r="19.834"/>
	<circle style="fill:#FFFFFF;" cx="315.5" cy="447.14" r="19.834"/>
	<circle style="fill:#FFFFFF;" cx="355.17" cy="447.14" r="19.834"/>
</g>
<path style="fill:#FFB655;" d="M312.007,290.783c-52.559-74.299-137.774-74.299-190.332,0l0,0l0,0
	C174.234,365.082,259.449,365.082,312.007,290.783L312.007,290.783L312.007,290.783z"/>
<g>
	<path style="fill:#FF7956;" d="M141.675,290.783L141.675,290.783L141.675,290.783c16.537,23.377,36.307,39.392,57.274,48.059
		c10.916-12.996,17.495-29.758,17.495-48.058c0-18.301-6.579-35.062-17.495-48.058C177.982,251.391,158.212,267.407,141.675,290.783
		z"/>
	<path style="fill:#FF7956;" d="M151.675,290.783L151.675,290.783L151.675,290.783c22.458-31.748,50.879-49.929,80.166-54.545
		c-39.254-6.187-80.066,11.994-110.166,54.545l0,0l0,0c30.101,42.551,70.912,60.732,110.166,54.545
		C202.554,340.712,174.133,322.531,151.675,290.783z"/>
</g>
<path style="fill:#FFB655;" d="M367.667,243.415c-20.367,8.812-39.548,24.593-55.659,47.368l0,0l0,0
	c16.111,22.775,35.292,38.556,55.659,47.368V243.415z"/>
<path style="fill:#FFF5CC;" d="M121.675,290.783L121.675,290.783L121.675,290.783c16.537,23.377,36.307,39.392,57.274,48.059
	c10.916-12.996,17.495-29.758,17.495-48.058c0-18.301-6.579-35.062-17.495-48.058C157.982,251.391,138.212,267.407,121.675,290.783z
	"/>
<g>
	<path style="fill:#FFB655;" d="M209.382,346.205c2.833,15.433,16.344,27.13,32.596,27.13h33.483v-45.742l-0.077,0.014
		C254.655,341.761,231.894,347.961,209.382,346.205z"/>
	<path style="fill:#FFB655;" d="M275.384,253.959l0.076,0.014v-45.742h-33.483c-16.252,0-29.762,11.697-32.596,27.13
		C231.894,233.606,254.655,239.805,275.384,253.959z"/>
</g>
<path style="fill:#9BC9FF;" d="M37.5,279.831c0-93.358,51.492-174.677,127.615-217.146l-21.286-37.187
	c-12.532-3.232-16.813-10.474-35.995-10.474l27.281,47.661C58.992,105.154,7.5,186.472,7.5,279.831s51.492,174.677,127.615,217.146
	h30C88.992,454.508,37.5,373.189,37.5,279.831z"/>
<g>
	<path style="fill:#E0E0E2;" d="M193.662,447.142c0-7.912,4.633-14.742,11.334-17.926c-2.576-1.224-5.458-1.909-8.5-1.909
		c-10.954,0-19.834,8.88-19.834,19.834s8.88,19.834,19.834,19.834c3.042,0,5.924-0.685,8.5-1.909
		C198.295,461.885,193.662,455.055,193.662,447.142z"/>
	<path style="fill:#E0E0E2;" d="M153.993,447.142c0-7.912,4.633-14.742,11.334-17.926c-2.576-1.224-5.458-1.909-8.5-1.909
		c-10.954,0-19.834,8.88-19.834,19.834s8.88,19.834,19.834,19.834c3.042,0,5.924-0.685,8.5-1.909
		C158.626,461.885,153.993,455.055,153.993,447.142z"/>
	<path style="fill:#E0E0E2;" d="M233.331,447.142c0-7.912,4.633-14.742,11.334-17.926c-2.576-1.224-5.458-1.909-8.5-1.909
		c-10.954,0-19.834,8.88-19.834,19.834s8.88,19.834,19.834,19.834c3.042,0,5.924-0.685,8.5-1.909
		C237.964,461.885,233.331,455.055,233.331,447.142z"/>
	<path style="fill:#E0E0E2;" d="M273,447.142c0-7.912,4.633-14.742,11.334-17.926c-2.576-1.224-5.458-1.909-8.5-1.909
		c-10.954,0-19.834,8.88-19.834,19.834s8.88,19.834,19.834,19.834c3.042,0,5.924-0.685,8.5-1.909
		C277.633,461.885,273,455.055,273,447.142z"/>
	<path style="fill:#E0E0E2;" d="M312.669,447.142c0-7.912,4.633-14.742,11.334-17.926c-2.576-1.224-5.458-1.909-8.5-1.909
		c-10.954,0-19.834,8.88-19.834,19.834s8.88,19.834,19.834,19.834c3.042,0,5.924-0.685,8.5-1.909
		C317.302,461.885,312.669,455.055,312.669,447.142z"/>
	<path style="fill:#E0E0E2;" d="M352.338,447.142c0-7.912,4.633-14.742,11.334-17.926c-2.576-1.224-5.458-1.909-8.5-1.909
		c-10.954,0-19.834,8.88-19.834,19.834s8.88,19.834,19.834,19.834c3.042,0,5.924-0.685,8.5-1.909
		C356.971,461.885,352.338,455.055,352.338,447.142z"/>
</g>
<path style="fill:#FF7956;" d="M342.008,290.783L342.008,290.783L342.008,290.783c7.89-11.154,16.517-20.63,25.659-28.432v-18.936
	c-20.367,8.813-39.548,24.593-55.659,47.368l0,0l0,0c16.111,22.775,35.292,38.555,55.659,47.368v-18.936
	C358.525,311.413,349.898,301.937,342.008,290.783z"/>
<path style="fill:#FFC477;" d="M151.675,290.783L151.675,290.783L151.675,290.783c10.672-15.086,22.69-27.106,35.508-36.064
	c-2.357-4.271-5.118-8.286-8.234-11.995c-20.968,8.667-40.738,24.682-57.274,48.058l0,0l0,0
	c16.536,23.376,36.307,39.392,57.274,48.058c3.115-3.709,5.877-7.724,8.234-11.995C174.365,317.889,162.347,305.869,151.675,290.783
	z"/>
<g>
	<path style="fill:#FF7956;" d="M239.382,346.205c12.072,0.942,24.215-0.405,36.079-4.038v-14.573l-0.077,0.014
		c-20.729,14.153-43.49,20.353-66.002,18.597c2.833,15.433,16.344,27.13,32.596,27.13h30
		C255.726,373.335,242.215,361.638,239.382,346.205z"/>
	<path style="fill:#FF7956;" d="M239.382,235.361c2.833-15.432,16.344-27.13,32.596-27.13h-30c-16.252,0-29.762,11.698-32.596,27.13
		c22.512-1.756,45.274,4.444,66.003,18.597l0.076,0.014V239.4C263.597,235.766,251.454,234.42,239.382,235.361z"/>
</g>
<rect x="157.2" y="280.13" width="15" height="15"/>
<rect x="79.72" y="213.31" width="15" height="15"/>
<rect x="104.72" y="213.31" width="15" height="15"/>
<rect x="129.72" y="213.31" width="15" height="15"/>
<rect x="366.75" y="386.48" width="15" height="15"/>
<rect x="316.75" y="386.48" width="15" height="15"/>
<rect x="341.75" y="386.48" width="15" height="15"/>
<g>
	<rect x="336" y="84.33" style="fill:#FFFFFF;" width="15" height="15"/>
	<rect x="164.7" y="84.33" style="fill:#FFFFFF;" width="136.3" height="15"/>
	<rect x="311" y="84.33" style="fill:#FFFFFF;" width="15" height="15"/>
	<path style="fill:#FFFFFF;" d="M426.589,376.254C443.213,346.857,452,313.515,452,279.83c-0.001-23.082-4.058-45.811-12.057-67.554
		l-14.078,5.18c7.388,20.079,11.134,41.065,11.135,62.374c0,31.103-8.115,61.892-23.468,89.041L426.589,376.254z"/>
	<path style="fill:#FFFFFF;" d="M403.559,175.093c2.767,3.901,5.411,7.962,7.858,12.067l12.885-7.682
		c-2.65-4.444-5.513-8.84-8.509-13.063L403.559,175.093z"/>
	<path style="fill:#FFFFFF;" d="M416.114,195.536c2.227,4.229,4.313,8.603,6.2,12.999l13.783-5.918
		c-2.043-4.759-4.302-9.492-6.712-14.069L416.114,195.536z"/>
</g>
<path d="M428.286,133.627l-2.246-2.65h-3.475c-15.433,0-23.564,3.515-30.738,6.615c-6.685,2.89-12.458,5.385-24.788,5.385
	s-18.104-2.495-24.788-5.385c-7.175-3.101-15.306-6.615-30.739-6.615c-15.432,0-23.563,3.515-30.735,6.615
	c-6.684,2.89-12.456,5.385-24.784,5.385c-12.329,0-18.102-2.495-24.785-5.385c-7.174-3.101-15.305-6.615-30.736-6.615
	s-23.563,3.515-30.736,6.616c-6.683,2.889-12.455,5.384-24.782,5.384c-12.328,0-18.1-2.495-24.783-5.385
	c-7.173-3.101-15.304-6.615-30.734-6.615H85.96l-2.246,2.65C49.076,174.489,30,226.412,30,279.83
	c0,67.655,29.975,131.212,82.238,174.371l9.551-11.566c-25.81-21.314-45.799-47.955-58.904-77.67H83v-15H56.948
	C49.118,327.722,45,304.057,45,279.83c0-48.692,16.98-96.058,47.889-133.783c10.018,0.424,15.303,2.709,21.329,5.313
	c7.173,3.102,15.304,6.616,30.734,6.616s23.562-3.515,30.734-6.615c6.684-2.89,12.456-5.385,24.784-5.385
	c12.329,0,18.102,2.495,24.785,5.385c7.174,3.101,15.305,6.615,30.736,6.615s23.563-3.515,30.735-6.616
	c6.684-2.889,12.456-5.384,24.784-5.384c12.33,0,18.104,2.495,24.788,5.385c7.175,3.101,15.306,6.615,30.739,6.615
	s23.565-3.515,30.739-6.615c6.027-2.605,11.313-4.891,21.333-5.314C450.02,183.772,467,231.138,467,279.83
	c0,63.165-27.988,122.505-76.789,162.805l9.551,11.566C452.025,411.042,482,347.485,482,279.83
	C482,226.412,462.924,174.489,428.286,133.627z"/>
<path d="M355.173,419.808c-7.801,0-14.85,3.285-19.835,8.545c-4.985-5.26-12.033-8.545-19.834-8.545s-14.85,3.285-19.835,8.545
	c-4.985-5.26-12.033-8.545-19.834-8.545c-7.801,0-14.85,3.286-19.835,8.545c-4.985-5.26-12.034-8.545-19.835-8.545
	s-14.849,3.285-19.834,8.545c-4.985-5.26-12.033-8.545-19.835-8.545s-14.849,3.285-19.834,8.545
	c-4.985-5.26-12.033-8.545-19.835-8.545c-15.072,0-27.334,12.263-27.334,27.335s12.262,27.334,27.334,27.334
	c7.801,0,14.85-3.285,19.835-8.544c4.985,5.259,12.033,8.544,19.834,8.544s14.85-3.285,19.835-8.544
	c4.985,5.259,12.033,8.544,19.834,8.544s14.85-3.285,19.835-8.545c4.985,5.26,12.034,8.545,19.835,8.545s14.849-3.285,19.834-8.544
	c4.985,5.259,12.033,8.544,19.835,8.544s14.849-3.285,19.834-8.544c4.985,5.259,12.033,8.544,19.835,8.544
	c15.072,0,27.334-12.262,27.334-27.334S370.245,419.808,355.173,419.808z M156.827,459.477c-6.801,0-12.334-5.533-12.334-12.334
	c0-6.802,5.533-12.335,12.334-12.335c6.802,0,12.335,5.533,12.335,12.335C169.162,453.943,163.629,459.477,156.827,459.477z
	 M196.496,459.477c-6.801,0-12.334-5.533-12.334-12.334c0-6.802,5.533-12.335,12.334-12.335c6.802,0,12.335,5.533,12.335,12.335
	C208.831,453.943,203.298,459.477,196.496,459.477z M236.165,459.477c-6.801,0-12.334-5.533-12.334-12.334
	c0-6.802,5.533-12.335,12.334-12.335c6.802,0,12.335,5.533,12.335,12.335C248.5,453.943,242.967,459.477,236.165,459.477z
	 M275.835,459.477c-6.802,0-12.335-5.533-12.335-12.334c0-6.802,5.533-12.335,12.335-12.335c6.801,0,12.334,5.533,12.334,12.335
	C288.169,453.943,282.636,459.477,275.835,459.477z M315.504,459.477c-6.802,0-12.335-5.533-12.335-12.334
	c0-6.802,5.533-12.335,12.335-12.335c6.801,0,12.334,5.533,12.334,12.335C327.838,453.943,322.305,459.477,315.504,459.477z
	 M355.173,459.477c-6.802,0-12.335-5.533-12.335-12.334c0-6.802,5.533-12.335,12.335-12.335c6.801,0,12.334,5.533,12.334,12.335
	C367.507,453.943,361.974,459.477,355.173,459.477z"/>
<g>
	<path style="fill:#FFFFFF;" d="M216.84,246.474l0.002,15h0.006c7.513,0,14.984,1.518,22.207,4.51l5.742-13.857
		c-9.054-3.751-18.455-5.652-27.948-5.652h-0.009V246.474z"/>
	<path style="fill:#FFFFFF;" d="M254.656,257.033l-7.574,12.947c3.806,2.227,7.528,4.898,11.063,7.941l9.787-11.367
		C263.71,262.921,259.244,259.717,254.656,257.033z"/>
	<path style="fill:#FFFFFF;" d="M264.781,284.291c3.082,3.284,6.044,6.926,8.803,10.824l12.244-8.664
		c-3.155-4.46-6.558-8.641-10.111-12.426L264.781,284.291z"/>
</g>
<path d="M116.091,295.872c0.057,0.079,0.114,0.159,0.17,0.238c0.15,0.208,0.299,0.416,0.45,0.624
	c0.129,0.179,0.259,0.357,0.389,0.535c0.019,0.026,0.038,0.052,0.057,0.077c17.662,24.201,39.103,41.188,62.511,49.908l1.492,0.617
	l0.047-0.056c7.248,2.579,14.679,4.369,22.241,5.339c5.474,16.335,20.862,27.681,38.53,27.681h40.982v-49.319
	c10.404-7.605,20.158-17.061,29.053-28.246c15.166,19.003,33.221,33.347,52.675,41.765l10.479,4.533v-117.57l-10.479,4.533
	c-19.454,8.418-37.509,22.761-52.675,41.765c-8.896-11.184-18.649-20.64-29.053-28.246v-49.319h-40.982
	c-17.668,0-33.056,11.346-38.53,27.681c-7.562,0.97-14.993,2.76-22.241,5.339l-0.047-0.056l-1.492,0.617
	c-23.408,8.72-44.849,25.708-62.511,49.908c-0.019,0.026-0.038,0.052-0.057,0.077c-0.13,0.178-0.259,0.356-0.389,0.535
	c-0.15,0.208-0.3,0.416-0.45,0.624c-0.057,0.079-0.114,0.159-0.17,0.238c-0.18,0.252-0.36,0.504-0.539,0.758l-3.063,4.331
	l3.063,4.331C115.731,295.368,115.911,295.62,116.091,295.872z M176.623,329.587c-16.841-8.121-32.467-21.398-45.654-38.804
	c13.188-17.405,28.813-30.683,45.654-38.804c7.979,11.298,12.321,24.879,12.321,38.804S184.602,318.289,176.623,329.587z
	 M267.96,365.835h-25.982c-9.002,0-17.065-4.666-21.654-11.885c16.558-0.546,32.616-4.98,47.636-12.991L267.96,365.835
	L267.96,365.835z M360.167,255.575v70.416c-11.791-6.794-22.884-16.164-32.812-27.708h21.98v-15h-21.98
	C337.283,271.739,348.376,262.37,360.167,255.575z M302.717,290.783c-9.147,12.093-19.313,22.064-30.201,29.739l-0.076,0.015
	l-1.284,0.877c-18.995,12.968-40.16,18.96-61.19,17.313l-1.752-0.137c-5.846-0.566-11.619-1.704-17.288-3.397
	c3.873-6.042,6.93-12.557,9.107-19.362H231v-15h-27.674c0.41-3.321,0.618-6.676,0.618-10.048c0-15.795-4.569-31.229-13.019-44.41
	c5.668-1.693,11.442-2.832,17.288-3.397l1.752-0.137c21.038-1.642,42.198,4.346,61.19,17.314l1.353,0.887h0.003
	C283.401,268.716,293.569,278.689,302.717,290.783z M241.978,215.731h25.982v24.876c-15.021-8.011-31.078-12.446-47.636-12.991
	C224.912,220.397,232.976,215.731,241.978,215.731z"/>
<path d="M387.105,59.927L417.1,7.524h-12.935c-14.074,0-21.459,3.588-27.976,6.754c-5.793,2.815-10.796,5.246-21.418,5.246
	s-15.625-2.431-21.419-5.246c-6.516-3.166-13.9-6.754-27.975-6.754c-14.072,0-21.457,3.589-27.972,6.755
	c-5.792,2.814-10.794,5.245-21.414,5.245c-10.621,0-15.624-2.431-21.416-5.246c-6.516-3.166-13.899-6.754-27.973-6.754
	c-14.072,0-21.456,3.588-27.971,6.754c-5.792,2.815-10.794,5.246-21.415,5.246c-10.62,0-15.622-2.431-21.414-5.245
	c-6.515-3.166-13.898-6.755-27.971-6.755H94.899l29.995,52.403C47.663,106.056,0,189.619,0,279.831
	c0,92.741,50.373,178.456,131.461,223.695l1.704,0.95h245.67l1.704-0.95C461.627,458.287,512,372.572,512,279.831
	C512,189.619,464.337,106.056,387.105,59.927z M374.918,489.477H137.082C61.727,446.643,15,366.495,15,279.831
	S61.728,113.019,137.083,70.185H214v-15h-74.536l-17.507-30.586c2.602,0.892,4.878,1.998,7.291,3.171
	c6.515,3.165,13.898,6.754,27.971,6.754s21.457-3.589,27.972-6.755c5.792-2.814,10.794-5.245,21.414-5.245
	c10.621,0,15.624,2.431,21.416,5.246c6.516,3.166,13.899,6.754,27.973,6.754c14.072,0,21.456-3.588,27.971-6.754
	c5.792-2.815,10.794-5.246,21.415-5.246c10.623,0,15.626,2.431,21.42,5.246c6.516,3.166,13.9,6.754,27.974,6.754
	s21.458-3.588,27.974-6.754c2.415-1.174,4.693-2.28,7.298-3.172l-17.508,30.587h-41.865v15h44.246
	c11.115,6.318,21.608,13.449,31.419,21.292H381.92v15h41.47c46.39,44.86,73.61,107.21,73.61,173.354
	C497,366.495,450.273,446.643,374.918,489.477z"/>
<g>
</g>
<g>
</g>
<g>
</g>
<g>
</g>
<g>
</g>
<g>
</g>
<g>
</g>
<g>
</g>
<g>
</g>
<g>
</g>
<g>
</g>
<g>
</g>
<g>
</g>
<g>
</g>
<g>
</g>
</svg>
