<svg height="469pt" viewBox="0 0 469 469.33334" width="469pt" xmlns="http://www.w3.org/2000/svg"><path d="m384.03125 243.113281v-8.445312l-85.199219 64-64 85.195312h8.449219c33.644531 0 63.992188 20.21875 76.953125 51.265625h42.597656l36.234375-36.230468 36.230469-36.230469v-42.601563c-31.046875-12.960937-51.265625-43.308594-51.265625-76.953125zm0 0" fill="#fed2e1"/><path d="m398.191406 289.566406c-9.230468-13.734375-14.160156-29.90625-14.160156-46.453125v-4.035156c.492188 37.8125-13.199219 75.230469-41.375 103.410156-26.226562 26.21875-61.34375 40.800781-99.070312 41.398438 16.523437.058593 32.652343 5.03125 46.339843 14.285156 52.070313-15.664063 92.761719-56.484375 108.265625-108.605469zm0 0" fill="#fcafc9"/><path d="m250.679688 350.289062c-11.546876-34.679687-37.550782-57.25-58.085938-50.414062s-27.820312 40.492188-16.273438 75.171875c11.546876 34.675781 37.550782 57.246094 58.085938 50.410156 20.535156-6.835937 27.820312-40.492187 16.273438-75.167969zm0 0" fill="#e41a67"/><path d="m213.5 107.113281s42.667969-43.113281 128-43.113281c64 0 85.332031 21.332031 85.332031 42.667969 0 42.664062-64 85.332031-64 85.332031h-149.332031zm0 0" fill="#e41a67"/><path d="m272.488281 126.375-11.332031-18.074219c1.832031-1.144531 45.824219-28.257812 132.6875-36.332031l1.980469 21.25c-81.304688 7.550781-122.929688 32.90625-123.335938 33.15625zm0 0" fill="#f73478"/><path d="m314.269531 148.207031-9.539062-19.082031c1.769531-.886719 44.082031-21.917969 108.0625-43.238281l6.75 20.226562c-62.4375 20.824219-104.855469 41.886719-105.273438 42.09375zm0 0" fill="#f73478"/><path d="m359.699219 167.550781-15.074219-15.09375c.917969-.914062 23.050781-22.8125 66.761719-44.664062l9.539062 19.082031c-40.34375 20.167969-61.019531 40.480469-61.226562 40.675781zm0 0" fill="#f73478"/><path d="m230.96875 120.113281-13.605469-16.414062c11.230469-9.3125 53.386719-39.699219 124.136719-39.699219 77.019531 0 85.332031 29.832031 85.332031 42.667969h-21.332031c0-10.273438-20.03125-21.335938-64-21.335938-63.613281 0-100.675781 26.625-110.53125 34.78125zm0 0" fill="#fa7ca7"/><path d="m426.832031 106.667969h-21.332031c0-10.273438-20.03125-21.335938-64-21.335938v-21.332031c77.019531 0 85.332031 29.832031 85.332031 42.667969zm0 0" fill="#fcafc9"/><path d="m375.210938 176.152344c-34.675782-11.546875-68.332032-4.257813-75.167969 16.273437-6.835938 20.535157 15.734375 46.542969 50.410156 58.085938 34.679687 11.546875 68.335937 4.261719 75.171875-16.273438 6.835938-20.53125-15.734375-46.539062-50.414062-58.085937zm0 0" fill="#e41a67"/><path d="m423.964844 238.046875c-.164063-.164063-.257813-.253906-.257813-.253906-24.175781-24.179688-69.613281-24.460938-71.539062-24.460938l-.011719 21.335938c.367188 0 36.847656.308593 55.207031 17.023437 7.601563-3.078125 13.382813-7.726562 16.601563-13.644531zm0 0" fill="#f73478"/><path d="m426.800781 227.8125-21.3125-.980469c.367188-7.851562-16.644531-26.269531-45.519531-32.8125-5.613281-1.304687-11.351562-1.980469-17.113281-2.019531v-21.332031c7.34375.039062 14.664062.890625 21.820312 2.539062 35.273438 7.992188 63.136719 32.492188 62.125 54.605469zm0 0" fill="#fa7ca7"/><path d="m128.167969 277.332031v76.5c0 16.660157 13.507812 30.167969 30.167969 30.167969 8.003906 0 15.675781-3.179688 21.332031-8.835938l33.832031-33.832031zm0 0" fill="#e41a67"/><path d="m384.03125 237.371094v-2.703125l-.179688.132812c.035157.855469.15625 1.710938.179688 2.570313zm0 0" fill="#fcafc9"/><path d="m362.832031 330.667969c0 5.890625-4.773437 10.664062-10.664062 10.664062s-10.667969-4.773437-10.667969-10.664062 4.777344-10.667969 10.667969-10.667969 10.664062 4.777344 10.664062 10.667969zm0 0" fill="#fb91b5"/><path d="m338.15625 131.34375c-59.546875-59.546875-154.078125-61.558594-211.140625-4.496094s-55.050781 151.59375 4.496094 211.140625 154.078125 61.558594 211.140625 4.496094 55.050781-151.59375-4.496094-211.140625zm0 0" fill="#f9578f"/><path d="m241.207031 384c-41.0625 0-80.019531-16.332031-109.695312-46.011719-25.214844-25.132812-41.109375-58.109375-45.074219-93.488281l42.417969-4.582031c2.910156 25.707031 14.484375 49.65625 32.820312 67.90625 21.625 21.601562 49.867188 33.507812 79.53125 33.507812 27.261719 0 52.574219-10.300781 71.28125-29.007812l30.167969 30.164062c-26.769531 26.773438-62.792969 41.511719-101.449219 41.511719zm0 0" fill="#f73478"/><path d="m381.230469 211.925781c0-.179687-.007813-.363281-.011719-.550781-3.402344-17-9.632812-33.308594-18.4375-48.246094-.015625.074219-.03125.144532-.042969.230469-8.878906 43.945313-32.914062 89.542969-71.292969 127.921875-38.375 38.375-83.972656 62.414062-127.917968 71.289062 15.03125 8.859376 31.453125 15.113282 48.566406 18.492188 39.308594-6.167969 78.898438-25.324219 111.351562-57.78125 32.457032-32.457031 51.617188-72.046875 57.785157-111.355469zm0 0" fill="#fcafc9"/><path d="m331.417969 159.417969c-26.847657-26.847657-58.421875-38.796875-70.527344-26.691407-12.101563 12.105469-.152344 43.679688 26.691406 70.523438 26.847657 26.84375 58.421875 38.796875 70.527344 26.691406 12.101563-12.105468.152344-43.679687-26.691406-70.523437zm0 0" fill="#fed2e1"/><path d="m312.488281 312.324219c-18.707031 18.707031-44.019531 29.007812-71.28125 29.007812-5.109375-.152343-10.203125-.664062-15.238281-1.527343-19.621094 10.53125-40.648438 18.199218-62.441406 22.765624-.085938.011719-.160156.027344-.242188.039063 15.007813 8.847656 31.40625 15.097656 48.496094 18.488281.105469-.011718.207031-.019531.3125-.035156 39.308594-6.167969 78.898438-25.324219 111.351562-57.78125zm0 0" fill="#fa7ca7"/><path d="m130.75 283.582031-15.082031-15.082031 18.75-18.75c20.109375-20.113281 20.109375-52.71875 0-72.832031l15.082031-15.085938c28.445312 28.441407 28.445312 74.558594 0 103zm0 0" fill="#f73478"/><path d="m323.824219 118.789062c.015625-.042968.027343-.085937.042969-.128906-4.085938-3.210937-8.28125-6.195312-12.589844-8.945312-.015625.042968-.035156.082031-.046875.125-16.050781 34.742187-39.394531 68.796875-69.914063 99.3125-42.527344 42.527344-92.050781 71.398437-140.585937 85.539062.046875.101563.101562.203125.148437.304688.523438 1.074218 1.054688 2.148437 1.601563 3.214844.261719.507812.53125 1.015624.796875 1.519531.351562.664062.699218 1.324219 1.054687 1.980469.316407.578124.640625 1.15625.964844 1.730468.328125.585938.65625 1.171875.996094 1.753906.339843.585938.683593 1.171876 1.03125 1.753907.347656.582031.699219 1.164062 1.050781 1.742187.34375.558594.691406 1.117188 1.039062 1.671875.402344.636719.8125 1.273438 1.226563 1.90625.3125.480469.625.960938.945313 1.441407.558593.835937 1.125 1.667968 1.703124 2.496093.1875.265625.371094.539063.558594.804688 1.640625 2.328125 3.359375 4.628906 5.148438 6.898437 43.382812-12.136718 88.660156-38.429687 127.65625-77.425781 39.070312-39.074219 65.105468-84.25 77.171875-127.695313zm0 0" fill="#fed2e1"/><path d="m141.140625 279.433594c-13.085937 6.054687-26.589844 11.15625-40.410156 15.257812 4.996093 10.378906 11.121093 20.179688 18.265625 29.21875.289062-.140625.476562-.191406.527344-.125 14.449218-4.128906 28.503906-9.519531 42.011718-16.105468-8.183594-8.335938-15.058594-17.855469-20.394531-28.246094zm0 0" fill="#fcafc9"/><path d="m459.621094 329.878906c-20.484375-20.484375-66.097656-8.085937-101.878906 27.695313s-48.179688 81.394531-27.695313 101.878906 66.097656 8.085937 101.878906-27.695313 48.179688-81.394531 27.695313-101.878906zm0 0" fill="#f9578f"/><path d="m365.449219 465.667969c-16.5625-19.0625-41.492188-41.511719-41.742188-41.730469l14.25-15.875c1.0625.957031 26.179688 23.5625 43.59375 43.605469zm0 0" fill="#fa7ca7"/><path d="m437.5 426.667969c-48.699219 0-72.550781-46.585938-73.542969-48.5625l19.0625-9.574219c.1875.375 19.105469 36.800781 54.480469 36.800781zm0 0" fill="#f73478"/><path d="m387.292969 359.542969 15.082031-15.085938 42.667969 42.667969-15.085938 15.082031zm0 0" fill="#f73478"/><path d="m408.113281 444.332031c-12.90625-14.863281-48.144531-33.976562-60.632812-40.082031l9.375-19.167969c1.988281.96875 48.96875 24.085938 67.363281 45.25zm0 0" fill="#fb91b5"/><path d="m408.625 338.207031 15.082031-15.082031 42.667969 42.667969-15.082031 15.082031zm0 0" fill="#fb91b5"/><path d="m356.96875 469.332031c-11.3125 0-20.375-3.320312-26.925781-9.875-20.449219-20.457031-8.023438-66.164062 27.695312-101.882812l15.085938 15.082031c-32.15625 32.15625-35.167969 64.25-27.699219 71.71875 2.40625 2.40625 6.394531 3.625 11.84375 3.625 17.34375 0 40.84375-12.292969 59.875-31.324219 32.15625-32.15625 35.167969-64.25 27.699219-71.71875l15.082031-15.082031c20.449219 20.457031 8.019531 66.167969-27.699219 101.886719-23.519531 23.53125-51.550781 37.570312-74.957031 37.570312zm0 0" fill="#fb91b5"/><path d="m180.1875 213.332031c-14.480469 0-27.707031-5.25-37.238281-14.78125l15.082031-15.082031c13.667969 13.667969 41.59375 9.644531 59.730469-8.542969 18.820312-18.8125 22.65625-45.601562 8.539062-59.726562l15.085938-15.085938c22.425781 22.4375 18.59375 62.773438-8.542969 89.898438-14.8125 14.820312-34 23.320312-52.65625 23.320312zm0 0" fill="#f73478"/><path d="m226.296875 115.203125c-14.136719-14.140625-40.878906-10.320313-59.730469 8.53125-18.847656 18.851563-22.667968 45.59375-8.53125 59.730469 14.136719 14.136718 40.878906 10.316406 59.730469-8.53125 18.851563-18.851563 22.671875-45.59375 8.53125-59.730469zm0 0" fill="#fee6ee"/><path d="m187.222656 132.945312c-7.542968-7.542968-20.996094-6.320312-30.046875 2.730469s-10.273437 22.503907-2.730469 30.046875c7.542969 7.542969 20.992188 6.320313 30.046876-2.730468 9.050781-9.054688 10.273437-22.503907 2.730468-30.046876zm0 0" fill="#2b2c53"/><path d="m168.359375 130.472656c-3.769531-3.769531-10.496094-3.160156-15.019531 1.367188-4.527344 4.523437-5.136719 11.25-1.367188 15.019531 3.769532 3.773437 10.496094 3.160156 15.023438-1.363281 4.523437-4.527344 5.136718-11.253906 1.363281-15.023438zm0 0" fill="#fee6ee"/><path d="m73.003906 200.835938 12.496094 12.496093-12.496094 12.5c-11.78125 11.78125-11.78125 30.882813 0 42.664063s30.882813 11.78125 42.664063 0l18.746093-18.746094c9.660157-9.65625 15.085938-22.757812 15.085938-36.417969 0-13.660156-5.425781-26.757812-15.085938-36.417969l-18.746093-18.746093c-11.78125-11.78125-30.882813-11.78125-42.664063 0v.003906c-11.78125 11.78125-11.78125 30.882813 0 42.664063zm0 0" fill="#e41a67"/><path d="m94.332031 277.332031c-16.660156.003907-30.167969-13.503906-30.164062-30.164062h21.332031c-.019531 2.347656.910156 4.601562 2.582031 6.25 3.484375 3.375 9.019531 3.375 12.5 0l18.75-18.75 15.085938 15.082031-18.75 18.75c-5.648438 5.675781-13.328125 8.855469-21.335938 8.832031zm0 0" fill="#fa7ca7"/><path d="m119.332031 192-18.75-18.75c-1.648437-1.671875-3.902343-2.601562-6.25-2.582031v-21.335938c8.007813-.023437 15.6875 3.160157 21.335938 8.835938l18.75 18.75zm0 0" fill="#fa7ca7"/><path d="m128.167969 149.332031h-10.667969c-12.863281 0-32-8.519531-32-32v-10.664062h21.332031v10.664062c0 8.59375 5.867188 10.542969 10.792969 10.667969h10.542969zm0 0" fill="#4a4b6c"/><path d="m64.167969 192c-23.554688-.023438-42.644531-19.113281-42.667969-42.667969h21.332031c.007813 11.777344 9.558594 21.320313 21.335938 21.320313 11.773437 0 21.324219-9.542969 21.332031-21.320313v-32h21.332031v32c-.023437 23.554688-19.109375 42.644531-42.664062 42.667969zm0 0" fill="#4a4b6c"/><path d="m21.5 96h21.332031v53.332031h-21.332031zm0 0" fill="#4a4b6c"/><path d="m21.5 106.667969h21.332031v21.332031h-21.332031zm0 0" fill="#2b2c53"/><path d="m32.167969 106.667969c-17.675781 0-32-14.328125-32-32 0-17.675781 14.324219-32 32-32 17.671875 0 32 14.324219 32 32-.019531 17.664062-14.335938 31.980469-32 32zm0-42.667969c-5.890625 0-10.667969 4.777344-10.667969 10.667969s4.777344 10.664062 10.667969 10.664062 10.664062-4.773437 10.664062-10.664062c-.003906-5.890625-4.777343-10.664063-10.664062-10.667969zm0 0" fill="#4a4b6c"/><path d="m21.5 0h21.332031v64h-21.332031zm0 0" fill="#5bcade"/><path d="m74.832031 202.667969 10.667969 10.664062-10.667969 10.667969 10.667969 10.667969 21.332031-21.335938-21.332031-21.332031zm0 0" fill="#ad004f"/><path d="m298.832031 341.332031c-38.1875 0-62.75-25.175781-74-40.1875l17.085938-12.789062c8.851562 11.820312 28.019531 31.644531 56.914062 31.644531 20.554688 0 42.667969-20.03125 42.667969-64h21.332031c0 58.625-33.175781 85.332031-64 85.332031zm0 0" fill="#f73478"/><path d="m234.832031 266.667969c-.050781-7.808594 2.433594-15.421875 7.085938-21.691407 9.46875-12.640624 28.441406-31.644531 56.914062-31.644531 42.667969 0 42.667969 42.667969 42.667969 42.667969 0 42.667969-21.332031 64-42.667969 64-28.472656 0-47.445312-19-56.914062-31.644531-4.652344-6.269531-7.136719-13.882813-7.085938-21.6875zm0 0" fill="#fb91b5"/><path d="m298.832031 320c-27.46875 0-46.113281-17.207031-56.914062-31.65625l17.082031-12.769531c7.886719 10.53125 21.1875 23.09375 39.832031 23.09375 8.855469 0 21.335938-13.21875 21.335938-42.605469h21.332031c0 41.980469-21.46875 63.9375-42.667969 63.9375zm0 0" fill="#fa7ca7"/><path d="m309.5 320c-48.699219 0-72.550781-46.582031-73.542969-48.5625l19.0625-9.574219c.1875.375 19.105469 36.804688 54.480469 36.804688zm0 0" fill="#fcafc9"/><path d="m330.832031 277.332031c-66.5 0-90.375-21.957031-92.875-24.457031l14.960938-15.207031c.1875.175781 20.3125 18.332031 77.914062 18.332031zm0 0" fill="#fa7ca7"/><path d="m256.167969 256-.011719-21.332031c13.625-.023438 52.25-3.324219 67.136719-18.210938l15.082031 15.085938c-23.769531 23.769531-76.300781 24.457031-82.207031 24.457031zm0 0" fill="#fcafc9"/><path d="m170.832031 330.667969c0 5.890625-4.773437 10.664062-10.664062 10.664062s-10.667969-4.773437-10.667969-10.664062 4.777344-10.667969 10.667969-10.667969 10.664062 4.777344 10.664062 10.667969zm0 0" fill="#e41a67"/><path d="m213.5 309.332031c0 5.890625-4.777344 10.667969-10.667969 10.667969s-10.664062-4.777344-10.664062-10.667969 4.773437-10.664062 10.664062-10.664062 10.667969 4.773437 10.667969 10.664062zm0 0" fill="#f73478"/><path d="m192.167969 352c0 5.890625-4.777344 10.667969-10.667969 10.667969s-10.667969-4.777344-10.667969-10.667969 4.777344-10.667969 10.667969-10.667969 10.667969 4.777344 10.667969 10.667969zm0 0" fill="#e41a67"/><path d="m320.167969 352c0 5.890625-4.777344 10.667969-10.667969 10.667969s-10.667969-4.777344-10.667969-10.667969 4.777344-10.667969 10.667969-10.667969 10.667969 4.777344 10.667969 10.667969zm0 0" fill="#e41a67"/><path d="m192.167969 224c0 5.890625-4.777344 10.667969-10.667969 10.667969s-10.667969-4.777344-10.667969-10.667969 4.777344-10.667969 10.667969-10.667969 10.667969 4.777344 10.667969 10.667969zm0 0" fill="#f73478"/><path d="m149.5 138.667969c0 5.890625-4.777344 10.664062-10.667969 10.664062s-10.664062-4.773437-10.664062-10.664062 4.773437-10.667969 10.664062-10.667969 10.667969 4.777344 10.667969 10.667969zm0 0" fill="#f73478"/><g fill="#fcafc9"><path d="m213.5 245.332031c0 5.890625-4.777344 10.667969-10.667969 10.667969s-10.664062-4.777344-10.664062-10.667969 4.773437-10.664062 10.664062-10.664062 10.667969 4.773437 10.667969 10.664062zm0 0"/><path d="m170.832031 288c0 5.890625-4.773437 10.667969-10.664062 10.667969s-10.667969-4.777344-10.667969-10.667969 4.777344-10.667969 10.667969-10.667969 10.664062 4.777344 10.664062 10.667969zm0 0"/><path d="m277.5 202.667969c0 5.890625-4.777344 10.664062-10.667969 10.664062s-10.664062-4.773437-10.664062-10.664062 4.773437-10.667969 10.664062-10.667969 10.667969 4.777344 10.667969 10.667969zm0 0"/><path d="m405.5 309.332031c0 5.890625-4.777344 10.667969-10.667969 10.667969s-10.664062-4.777344-10.664062-10.667969 4.773437-10.664062 10.664062-10.664062 10.667969 4.773437 10.667969 10.664062zm0 0"/></g><path d="m320.167969 373.332031c0 5.890625-4.777344 10.667969-10.667969 10.667969s-10.667969-4.777344-10.667969-10.667969 4.777344-10.664062 10.667969-10.664062 10.667969 4.773437 10.667969 10.664062zm0 0" fill="#fb91b5"/><path d="m277.5 117.332031c0 5.890625-4.777344 10.667969-10.667969 10.667969s-10.664062-4.777344-10.664062-10.667969 4.773437-10.664062 10.664062-10.664062 10.667969 4.773437 10.667969 10.664062zm0 0" fill="#f73478"/><path d="m213.5 96c0 5.890625-4.777344 10.667969-10.667969 10.667969s-10.664062-4.777344-10.664062-10.667969 4.773437-10.667969 10.664062-10.667969 10.667969 4.777344 10.667969 10.667969zm0 0" fill="#f73478"/><path d="m234.832031 352c0 5.890625-4.773437 10.667969-10.664062 10.667969s-10.667969-4.777344-10.667969-10.667969 4.777344-10.667969 10.667969-10.667969 10.664062 4.777344 10.664062 10.667969zm0 0" fill="#f9578f"/><path d="m149.5 309.332031c0 5.890625-4.777344 10.667969-10.667969 10.667969s-10.664062-4.777344-10.664062-10.667969 4.773437-10.664062 10.664062-10.664062 10.667969 4.773437 10.667969 10.664062zm0 0" fill="#fb91b5"/></svg>