<?xml version="1.0" encoding="iso-8859-1"?>
<!-- Generator: Adobe Illustrator 22.1.0, SVG Export Plug-In . SVG Version: 6.00 Build 0)  -->
<svg xmlns="http://www.w3.org/2000/svg" xmlns:xlink="http://www.w3.org/1999/xlink" version="1.1" id="Layer_1_1_" x="0px" y="0px" viewBox="0 0 64 64" style="enable-background:new 0 0 64 64;" xml:space="preserve" width="512" height="512">
<g>
	<g>
		<g>
			<path style="fill:#F0BC5E;" d="M43,27c-7.168,0-13-5.832-13-13S35.832,1,43,1s13,5.832,13,13S50.168,27,43,27z"/>
		</g>
	</g>
	<path d="M43,13c-1.103,0-2-0.897-2-2s0.897-2,2-2s2,0.897,2,2h2c0-1.858-1.279-3.411-3-3.858V5h-2v2.142c-1.721,0.447-3,2-3,3.858   c0,2.206,1.794,4,4,4c1.103,0,2,0.897,2,2s-0.897,2-2,2s-2-0.897-2-2h-2c0,1.858,1.279,3.411,3,3.858V23h2v-2.142   c1.721-0.447,3-2,3-3.858C47,14.794,45.206,13,43,13z"/>
	<path d="M63,29H21v9c0,2.268,0.46,4.446,1.319,6.506L17.838,46H17v-2H1v16h16v-2h0.877l18.164,4.541   C37.259,62.846,38.513,63,39.769,63c2.261,0,4.535-0.512,6.579-1.479l14.33-6.787c1.41-0.669,2.322-2.11,2.322-3.671   c0-1.774-1.151-3.27-2.74-3.822C62.031,44.502,63,41.281,63,38V29z M23.057,39H27v-2h-4v-2h32v-2H23v-2h38v2h-4v2h4v2H29v2h31.959   c-0.19,2.939-1.221,5.695-3.01,8.05c-0.266,0.039-0.529,0.095-0.784,0.186L45.98,51.231c0.003-0.066,0.02-0.128,0.02-0.195   c0-1.628-1.021-3.116-2.541-3.7l-8.609-3.311c-3.314-1.275-7.012-1.359-10.378-0.236l-0.252,0.084   C23.556,42.322,23.167,40.691,23.057,39z M15,58H9V48H7v10H3V46h8v10h2V46h2V58z M61,51.062c0,0.793-0.463,1.524-1.179,1.864   l-14.329,6.787c-2.766,1.31-5.998,1.63-8.966,0.888L18.242,56.03L17,56.013V48h1.162l6.942-2.314   c2.927-0.976,6.146-0.903,9.026,0.206l8.61,3.311C43.494,49.492,44,50.229,44,51.036c0,0.368-0.108,0.709-0.285,1.004l-0.051,0.018   l0.016,0.045C43.33,52.642,42.725,53,42.036,53h-0.465c-0.251,0-0.497-0.047-0.73-0.14l-9.47-3.789l-0.742,1.857l9.47,3.788   C40.569,54.905,41.064,55,41.571,55h0.465c1.142,0,2.165-0.493,2.889-1.269l12.912-4.611c0.224-0.08,0.457-0.12,0.693-0.12h0.407   C60.075,49,61,49.925,61,51.062z"/>
</g>
</svg>
